<?xml version="1.0" standalone="no"?>
<!DOCTYPE svg PUBLIC "-//W3C//DTD SVG 20010904//EN"
 "http://www.w3.org/TR/2001/REC-SVG-20010904/DTD/svg10.dtd">
<svg version="1.0" xmlns="http://www.w3.org/2000/svg"
 width="588.000000pt" height="279.000000pt" viewBox="0 0 588.000000 279.000000"
 preserveAspectRatio="xMidYMid meet">

<g transform="translate(0.000000,279.000000) scale(0.100000,-0.100000)"
fill="#000000" stroke="none">
<path d="M2789 2169 c-54 -32 -74 -72 -74 -149 0 -49 5 -71 20 -92 25 -34 104
-78 139 -78 32 0 93 25 119 48 29 26 57 87 57 125 0 46 -34 111 -72 138 -47
34 -140 37 -189 8z m122 -108 c24 -12 25 -15 15 -47 -10 -31 -14 -34 -48 -34
-31 0 -38 4 -38 19 0 11 -4 23 -10 26 -5 3 -10 10 -10 15 0 10 51 41 60 37 3
-2 17 -8 31 -16z"/>
<path d="M965 2013 c-116 -141 -148 -180 -215 -263 -41 -51 -82 -101 -92 -112
-9 -10 -31 -38 -50 -60 -18 -23 -57 -70 -85 -104 l-53 -62 26 -37 c14 -21 31
-43 37 -50 7 -6 28 -31 47 -55 19 -24 60 -73 90 -110 30 -36 71 -86 90 -109
19 -24 44 -54 55 -66 11 -13 55 -66 99 -119 l78 -96 1885 0 1885 0 26 28 c15
15 43 46 62 67 19 22 73 83 119 135 81 91 225 251 246 274 6 6 34 39 63 74
l52 63 -38 41 c-20 22 -42 46 -47 52 -6 6 -103 115 -215 241 -112 127 -220
247 -239 268 l-34 37 -824 0 -824 0 3 -22 3 -23 805 -5 c511 -3 810 -9 820
-15 15 -10 53 -51 184 -199 39 -43 75 -84 80 -90 6 -6 45 -50 86 -96 41 -47
91 -102 110 -123 51 -56 54 -64 34 -95 -13 -20 -169 -199 -194 -222 -3 -3 -39
-43 -80 -90 -41 -47 -79 -90 -85 -96 -5 -6 -39 -43 -74 -83 l-64 -71 -1857 0
-1858 0 -33 38 c-19 21 -70 82 -114 137 -44 54 -126 154 -183 221 -56 68 -113
140 -127 160 l-25 36 53 62 c28 35 86 105 127 156 166 205 283 346 298 358 12
9 190 12 813 12 685 0 798 2 809 15 6 8 9 19 5 25 -4 7 -268 10 -828 10 l-822
0 -30 -37z"/>
<path d="M1940 1681 c-25 -7 -25 -7 -2 -13 22 -6 22 -6 22 -225 0 -229 -2
-238 -45 -261 -19 -11 -18 -11 6 -12 15 0 37 12 55 31 l29 30 0 227 c0 220 -1
227 -20 229 -11 1 -31 -2 -45 -6z"/>
<path d="M2896 1681 c-18 -7 -18 -8 -3 -14 15 -6 17 -27 17 -185 0 -137 3
-182 13 -191 26 -21 37 9 37 101 0 72 3 89 17 97 17 9 17 10 0 28 -13 15 -17
37 -17 90 0 55 -3 72 -16 77 -19 7 -23 7 -48 -3z"/>
<path d="M3102 1668 c-7 -7 -12 -38 -12 -69 0 -32 -4 -69 -10 -83 -6 -16 -6
-27 0 -31 6 -4 10 -46 10 -94 0 -68 4 -92 16 -102 28 -23 34 9 34 204 0 191
-4 209 -38 175z"/>
<path d="M1869 1642 c-42 -44 -50 -89 -20 -116 18 -16 19 -15 23 45 3 36 10
65 16 67 13 4 17 22 5 21 -5 0 -15 -8 -24 -17z"/>
<path d="M2838 1643 c-42 -48 -48 -91 -18 -118 20 -18 20 -17 20 38 0 32 0 60
-1 63 0 3 8 12 18 20 10 7 13 14 7 14 -6 0 -18 -8 -26 -17z"/>
<path d="M3727 1653 c-4 -3 -7 -73 -7 -155 0 -135 -2 -150 -20 -168 -16 -16
-25 -18 -40 -10 -17 9 -20 23 -22 118 -3 89 -6 107 -19 110 -14 3 -17 -13 -22
-110 -5 -113 -5 -113 22 -135 29 -25 57 -30 63 -11 4 10 10 10 32 0 38 -17 46
-9 46 51 0 66 21 99 58 95 25 -3 27 -8 33 -61 7 -61 29 -97 60 -97 28 0 34 21
12 39 -15 11 -22 32 -26 70 -3 44 -10 59 -31 76 -28 22 -33 41 -13 48 6 2 8 8
4 13 -5 5 -14 3 -20 -6 -7 -8 -23 -24 -35 -35 -33 -28 -42 -8 -42 93 0 62 -3
82 -13 82 -8 0 -17 -3 -20 -7z"/>
<path d="M2114 1528 c-43 -49 -58 -137 -32 -193 13 -29 55 -55 88 -55 23 0 70
42 70 62 -1 9 -4 8 -13 -3 -15 -20 -49 -31 -71 -23 -22 9 -46 56 -46 92 0 60
40 124 85 135 11 2 2 5 -21 6 -30 1 -45 -5 -60 -21z"/>
<path d="M2350 1525 c-14 -13 -31 -31 -38 -40 -19 -22 -55 -15 -67 13 -14 32
-25 27 -25 -11 0 -20 8 -39 19 -49 18 -15 19 -15 24 3 3 10 12 19 21 19 12 0
16 -10 16 -40 0 -72 48 -139 100 -140 30 0 84 46 73 63 -5 8 -9 7 -11 -5 -2
-10 -7 -18 -10 -18 -4 0 -17 -3 -29 -6 -16 -4 -29 2 -48 21 -48 52 -25 173 38
200 l32 14 -35 1 c-24 0 -43 -8 -60 -25z"/>
<path d="M2550 1521 c0 -57 -57 -67 -76 -13 l-10 27 -5 -38 c-4 -30 0 -42 18
-59 l23 -21 0 21 c0 15 6 22 20 22 11 0 20 -1 20 -2 1 -2 3 -39 7 -83 5 -78
21 -112 35 -77 4 9 7 49 7 89 1 106 30 150 80 124 16 -9 20 -24 23 -104 3 -96
16 -127 51 -127 22 0 29 28 10 38 -13 8 -16 27 -17 94 -1 62 -6 91 -19 111
-19 30 -54 35 -87 15 -16 -10 -24 -10 -40 0 -30 19 -40 15 -40 -17z"/>
<path d="M3214 1535 c-4 -8 -5 -62 -2 -120 4 -123 14 -139 84 -130 39 5 42 4
42 -17 1 -13 2 -36 3 -52 1 -20 -6 -36 -20 -47 -24 -19 -16 -31 16 -23 22 6
53 62 53 97 0 13 5 28 12 35 9 9 9 12 0 12 -8 0 -12 38 -14 127 -3 112 -5 128
-20 131 -16 3 -18 -6 -18 -85 0 -70 -4 -95 -20 -120 -20 -34 -34 -39 -60 -23
-11 7 -16 35 -18 120 -3 88 -7 110 -18 110 -8 0 -17 -7 -20 -15z"/>
<path d="M3462 1434 c3 -114 4 -117 30 -137 22 -17 33 -19 55 -11 33 11 46 40
15 32 -45 -12 -57 12 -60 126 -4 97 -5 106 -23 106 -18 0 -19 -7 -17 -116z"/>
<path d="M1813 1274 c-15 -23 -15 -29 -2 -52 21 -37 36 -38 31 -2 -5 35 12 60
40 60 10 0 16 5 13 10 -13 21 -64 11 -82 -16z"/>
<path d="M1858 1173 c7 -3 16 -2 19 1 4 3 -2 6 -13 5 -11 0 -14 -3 -6 -6z"/>
</g>
</svg>
